<mxfile host="app.diagrams.net" modified="2023-12-18T16:50:00.295Z" agent="Mozilla/5.0 (Windows NT 10.0; Win64; x64) AppleWebKit/537.36 (KHTML, like Gecko) Chrome/120.0.0.0 Safari/537.36" etag="HxZ7Um9P9QIpt8fGZhuL" version="22.1.11" type="device">
  <diagram name="第 1 页" id="ZVeX3MrrJ8u_XPvHQYW3">
    <mxGraphModel dx="365" dy="484" grid="1" gridSize="10" guides="1" tooltips="1" connect="1" arrows="1" fold="1" page="0" pageScale="1" pageWidth="827" pageHeight="1169" math="0" shadow="0">
      <root>
        <mxCell id="0" />
        <mxCell id="1" parent="0" />
        <mxCell id="giw1rmGDhQp2oMULYZ0z-1" value="" style="verticalLabelPosition=bottom;verticalAlign=top;html=1;shape=mxgraph.basic.rect;fillColor2=none;strokeWidth=1;size=20;indent=5;fillColor=none;" parent="1" vertex="1">
          <mxGeometry width="320" height="240" as="geometry" />
        </mxCell>
        <mxCell id="8gye8lYrFyiWqnvWTvWa-485" value="" style="verticalLabelPosition=bottom;verticalAlign=top;html=1;shape=mxgraph.basic.rect;fillColor2=none;strokeWidth=1;size=20;indent=5;fillColor=none;strokeColor=#333333;" parent="1" vertex="1">
          <mxGeometry width="20" height="80" as="geometry" />
        </mxCell>
        <mxCell id="mk1CYxiMvZQm68hf4U1i-44" value="" style="rounded=0;whiteSpace=wrap;html=1;fillColor=none;" parent="1" vertex="1">
          <mxGeometry width="40" height="80" as="geometry" />
        </mxCell>
        <mxCell id="mk1CYxiMvZQm68hf4U1i-1" value="" style="verticalLabelPosition=bottom;verticalAlign=top;html=1;shape=mxgraph.basic.rect;fillColor2=none;strokeWidth=1;size=20;indent=5;fillColor=none;" parent="1" vertex="1">
          <mxGeometry x="640" width="320" height="240" as="geometry" />
        </mxCell>
        <mxCell id="8gye8lYrFyiWqnvWTvWa-423" value="人" style="rounded=0;whiteSpace=wrap;html=1;strokeColor=none;fillColor=#FFCC99;rotation=90;" parent="1" vertex="1">
          <mxGeometry x="60" width="20" height="20" as="geometry" />
        </mxCell>
        <mxCell id="8gye8lYrFyiWqnvWTvWa-424" value="人" style="rounded=0;whiteSpace=wrap;html=1;strokeColor=none;fillColor=#FFCC99;rotation=-90;" parent="1" vertex="1">
          <mxGeometry x="120" width="20" height="20" as="geometry" />
        </mxCell>
        <mxCell id="8gye8lYrFyiWqnvWTvWa-425" value="人" style="rounded=0;whiteSpace=wrap;html=1;strokeColor=none;fillColor=#FF9933;" parent="1" vertex="1">
          <mxGeometry x="20" width="20" height="20" as="geometry" />
        </mxCell>
        <mxCell id="8gye8lYrFyiWqnvWTvWa-453" value="&lt;font style=&quot;font-size: 4px;&quot;&gt;牆&lt;/font&gt;" style="rounded=0;whiteSpace=wrap;html=1;fillColor=#CC99FF;shadow=0;strokeColor=none;" parent="1" vertex="1">
          <mxGeometry y="120" width="5" height="5" as="geometry" />
        </mxCell>
        <mxCell id="8gye8lYrFyiWqnvWTvWa-454" value="key" style="rounded=0;whiteSpace=wrap;html=1;strokeColor=none;" parent="1" vertex="1">
          <mxGeometry y="80" width="20" height="20" as="geometry" />
        </mxCell>
        <mxCell id="8gye8lYrFyiWqnvWTvWa-455" value="&lt;font style=&quot;font-size: 6px;&quot;&gt;關鎖&lt;/font&gt;" style="rounded=0;whiteSpace=wrap;html=1;strokeColor=none;" parent="1" vertex="1">
          <mxGeometry x="20" y="80" width="20" height="20" as="geometry" />
        </mxCell>
        <mxCell id="8gye8lYrFyiWqnvWTvWa-461" value="&lt;font style=&quot;font-size: 6px;&quot;&gt;開鎖&lt;/font&gt;" style="rounded=0;whiteSpace=wrap;html=1;strokeColor=none;" parent="1" vertex="1">
          <mxGeometry x="40" y="80" width="20" height="20" as="geometry" />
        </mxCell>
        <mxCell id="8gye8lYrFyiWqnvWTvWa-462" value="&lt;font style=&quot;font-size: 6px;&quot;&gt;關燈&lt;/font&gt;" style="rounded=0;whiteSpace=wrap;html=1;strokeColor=none;" parent="1" vertex="1">
          <mxGeometry y="100" width="20" height="20" as="geometry" />
        </mxCell>
        <mxCell id="8gye8lYrFyiWqnvWTvWa-463" value="&lt;font style=&quot;font-size: 6px;&quot;&gt;開燈&lt;/font&gt;" style="rounded=0;whiteSpace=wrap;html=1;strokeColor=none;" parent="1" vertex="1">
          <mxGeometry x="20" y="100" width="20" height="20" as="geometry" />
        </mxCell>
        <mxCell id="8gye8lYrFyiWqnvWTvWa-464" value="" style="verticalLabelPosition=bottom;verticalAlign=top;html=1;shape=mxgraph.basic.heart" parent="1" vertex="1">
          <mxGeometry x="40" y="100" width="20" height="20" as="geometry" />
        </mxCell>
        <mxCell id="8gye8lYrFyiWqnvWTvWa-469" value="&lt;font style=&quot;font-size: 24px;&quot;&gt;小艾走不出去的迷宮&lt;/font&gt;" style="rounded=0;whiteSpace=wrap;html=1;strokeColor=none;fillColor=#D4E1F5;" parent="1" vertex="1">
          <mxGeometry x="60" y="80" width="240" height="60" as="geometry" />
        </mxCell>
        <mxCell id="8gye8lYrFyiWqnvWTvWa-474" value="鬼" style="rounded=0;whiteSpace=wrap;html=1;strokeColor=none;fillColor=#CCCCFF;" parent="1" vertex="1">
          <mxGeometry y="20" width="20" height="20" as="geometry" />
        </mxCell>
        <mxCell id="8gye8lYrFyiWqnvWTvWa-478" value="人" style="rounded=0;whiteSpace=wrap;html=1;strokeColor=none;fillColor=#FFCC99;" parent="1" vertex="1">
          <mxGeometry width="20" height="20" as="geometry" />
        </mxCell>
        <mxCell id="8gye8lYrFyiWqnvWTvWa-479" value="NEXT [N]" style="rounded=0;whiteSpace=wrap;html=1;fillColor=#F8CECC;strokeColor=none;" parent="1" vertex="1">
          <mxGeometry y="40" width="80" height="20" as="geometry" />
        </mxCell>
        <mxCell id="8gye8lYrFyiWqnvWTvWa-480" value="BACK [B]" style="rounded=0;whiteSpace=wrap;html=1;fillColor=#F8CECC;strokeColor=none;" parent="1" vertex="1">
          <mxGeometry x="80" y="40" width="80" height="20" as="geometry" />
        </mxCell>
        <mxCell id="8gye8lYrFyiWqnvWTvWa-481" value="RETRY [R]" style="rounded=0;whiteSpace=wrap;html=1;fillColor=#F8CECC;strokeColor=none;" parent="1" vertex="1">
          <mxGeometry x="160" y="40" width="80" height="20" as="geometry" />
        </mxCell>
        <mxCell id="8gye8lYrFyiWqnvWTvWa-482" value="STAGE 1 [1]" style="rounded=0;whiteSpace=wrap;html=1;fillColor=#F8CECC;strokeColor=none;" parent="1" vertex="1">
          <mxGeometry x="240" y="40" width="80" height="20" as="geometry" />
        </mxCell>
        <mxCell id="8gye8lYrFyiWqnvWTvWa-483" value="STAGE 2 [2]" style="rounded=0;whiteSpace=wrap;html=1;fillColor=#F8CECC;strokeColor=none;" parent="1" vertex="1">
          <mxGeometry y="60" width="80" height="20" as="geometry" />
        </mxCell>
        <mxCell id="8gye8lYrFyiWqnvWTvWa-484" value="STAGE 3 [3]" style="rounded=0;whiteSpace=wrap;html=1;fillColor=#F8CECC;strokeColor=none;" parent="1" vertex="1">
          <mxGeometry x="80" y="60" width="80" height="20" as="geometry" />
        </mxCell>
        <mxCell id="umz5n9U-2U131VHlXsAc-1" value="" style="verticalLabelPosition=bottom;verticalAlign=top;html=1;shape=mxgraph.basic.rect;fillColor2=none;strokeWidth=1;size=20;indent=5;fillColor=none;" parent="1" vertex="1">
          <mxGeometry x="320" width="320" height="240" as="geometry" />
        </mxCell>
        <mxCell id="umz5n9U-2U131VHlXsAc-8" value="STAGE 1 [1]" style="rounded=0;whiteSpace=wrap;html=1;fillColor=#F8CECC;strokeColor=none;" parent="1" vertex="1">
          <mxGeometry x="440" y="120" width="80" height="20" as="geometry" />
        </mxCell>
        <mxCell id="umz5n9U-2U131VHlXsAc-9" value="STAGE 3 [3]" style="rounded=0;whiteSpace=wrap;html=1;fillColor=#F8CECC;strokeColor=none;" parent="1" vertex="1">
          <mxGeometry x="440" y="200" width="80" height="20" as="geometry" />
        </mxCell>
        <mxCell id="umz5n9U-2U131VHlXsAc-10" value="STAGE 2 [2]" style="rounded=0;whiteSpace=wrap;html=1;fillColor=#F8CECC;strokeColor=none;" parent="1" vertex="1">
          <mxGeometry x="440" y="160" width="80" height="20" as="geometry" />
        </mxCell>
        <mxCell id="umz5n9U-2U131VHlXsAc-12" value="" style="rounded=0;whiteSpace=wrap;html=1;fillColor=none;" parent="1" vertex="1">
          <mxGeometry x="700" y="30" width="200" height="200" as="geometry" />
        </mxCell>
        <mxCell id="umz5n9U-2U131VHlXsAc-14" value="&lt;font style=&quot;font-size: 24px;&quot;&gt;小艾走不出去的迷宮&lt;/font&gt;" style="rounded=0;whiteSpace=wrap;html=1;strokeColor=none;fillColor=#D4E1F5;" parent="1" vertex="1">
          <mxGeometry x="360" y="40" width="240" height="60" as="geometry" />
        </mxCell>
        <mxCell id="umz5n9U-2U131VHlXsAc-16" value="人" style="rounded=0;whiteSpace=wrap;html=1;strokeColor=none;fillColor=#FF8000;" parent="1" vertex="1">
          <mxGeometry x="40" width="20" height="20" as="geometry" />
        </mxCell>
        <mxCell id="umz5n9U-2U131VHlXsAc-17" value="人" style="rounded=0;whiteSpace=wrap;html=1;strokeColor=none;fillColor=#FF8000;rotation=90;" parent="1" vertex="1">
          <mxGeometry x="100" width="20" height="20" as="geometry" />
        </mxCell>
        <mxCell id="umz5n9U-2U131VHlXsAc-18" value="人" style="rounded=0;whiteSpace=wrap;html=1;strokeColor=none;fillColor=#FF9933;rotation=90;" parent="1" vertex="1">
          <mxGeometry x="80" width="20" height="20" as="geometry" />
        </mxCell>
        <mxCell id="umz5n9U-2U131VHlXsAc-22" value="人" style="rounded=0;whiteSpace=wrap;html=1;strokeColor=none;fillColor=#FF8000;rotation=-90;" parent="1" vertex="1">
          <mxGeometry x="160" width="20" height="20" as="geometry" />
        </mxCell>
        <mxCell id="umz5n9U-2U131VHlXsAc-23" value="鬼" style="rounded=0;whiteSpace=wrap;html=1;strokeColor=none;fillColor=#9999FF;" parent="1" vertex="1">
          <mxGeometry x="20" y="20" width="20" height="20" as="geometry" />
        </mxCell>
        <mxCell id="umz5n9U-2U131VHlXsAc-25" value="鬼" style="rounded=0;whiteSpace=wrap;html=1;strokeColor=none;fillColor=#6666FF;" parent="1" vertex="1">
          <mxGeometry x="40" y="20" width="20" height="20" as="geometry" />
        </mxCell>
        <mxCell id="umz5n9U-2U131VHlXsAc-32" value="人" style="rounded=0;whiteSpace=wrap;html=1;strokeColor=none;fillColor=#FF9933;rotation=-90;" parent="1" vertex="1">
          <mxGeometry x="140" width="20" height="20" as="geometry" />
        </mxCell>
        <mxCell id="umz5n9U-2U131VHlXsAc-33" value="人" style="rounded=0;whiteSpace=wrap;html=1;strokeColor=none;fillColor=#FFCC99;rotation=-180;" parent="1" vertex="1">
          <mxGeometry x="180" width="20" height="20" as="geometry" />
        </mxCell>
        <mxCell id="umz5n9U-2U131VHlXsAc-34" value="人" style="rounded=0;whiteSpace=wrap;html=1;strokeColor=none;fillColor=#FF8000;rotation=-180;" parent="1" vertex="1">
          <mxGeometry x="220" width="20" height="20" as="geometry" />
        </mxCell>
        <mxCell id="umz5n9U-2U131VHlXsAc-35" value="人" style="rounded=0;whiteSpace=wrap;html=1;strokeColor=none;fillColor=#FF9933;rotation=-180;" parent="1" vertex="1">
          <mxGeometry x="200" width="20" height="20" as="geometry" />
        </mxCell>
        <mxCell id="umz5n9U-2U131VHlXsAc-36" value="鬼" style="rounded=0;whiteSpace=wrap;html=1;strokeColor=none;fillColor=#CCCCFF;rotation=90;" parent="1" vertex="1">
          <mxGeometry x="60" y="20" width="20" height="20" as="geometry" />
        </mxCell>
        <mxCell id="umz5n9U-2U131VHlXsAc-37" value="鬼" style="rounded=0;whiteSpace=wrap;html=1;strokeColor=none;fillColor=#9999FF;rotation=90;" parent="1" vertex="1">
          <mxGeometry x="80" y="20" width="20" height="20" as="geometry" />
        </mxCell>
        <mxCell id="umz5n9U-2U131VHlXsAc-38" value="鬼" style="rounded=0;whiteSpace=wrap;html=1;strokeColor=none;fillColor=#6666FF;rotation=90;direction=south;" parent="1" vertex="1">
          <mxGeometry x="100" y="20" width="20" height="20" as="geometry" />
        </mxCell>
        <mxCell id="umz5n9U-2U131VHlXsAc-39" value="鬼" style="rounded=0;whiteSpace=wrap;html=1;strokeColor=none;fillColor=#CCCCFF;direction=north;flipV=0;flipH=0;rotation=180;" parent="1" vertex="1">
          <mxGeometry x="180" y="20" width="20" height="20" as="geometry" />
        </mxCell>
        <mxCell id="umz5n9U-2U131VHlXsAc-40" value="鬼" style="rounded=0;whiteSpace=wrap;html=1;strokeColor=none;fillColor=#9999FF;direction=north;flipV=0;flipH=0;rotation=180;" parent="1" vertex="1">
          <mxGeometry x="200" y="20" width="20" height="20" as="geometry" />
        </mxCell>
        <mxCell id="umz5n9U-2U131VHlXsAc-41" value="鬼" style="rounded=0;whiteSpace=wrap;html=1;strokeColor=none;fillColor=#6666FF;direction=west;flipV=0;flipH=0;rotation=180;" parent="1" vertex="1">
          <mxGeometry x="220" y="20" width="20" height="20" as="geometry" />
        </mxCell>
        <mxCell id="umz5n9U-2U131VHlXsAc-42" value="鬼" style="rounded=0;whiteSpace=wrap;html=1;strokeColor=none;fillColor=#CCCCFF;direction=north;flipV=0;flipH=0;rotation=270;" parent="1" vertex="1">
          <mxGeometry x="120" y="20" width="20" height="20" as="geometry" />
        </mxCell>
        <mxCell id="umz5n9U-2U131VHlXsAc-43" value="鬼" style="rounded=0;whiteSpace=wrap;html=1;strokeColor=none;fillColor=#9999FF;direction=north;flipV=0;flipH=0;rotation=270;" parent="1" vertex="1">
          <mxGeometry x="140" y="20" width="20" height="20" as="geometry" />
        </mxCell>
        <mxCell id="umz5n9U-2U131VHlXsAc-44" value="鬼" style="rounded=0;whiteSpace=wrap;html=1;strokeColor=none;fillColor=#6666FF;direction=west;flipV=0;flipH=0;rotation=270;" parent="1" vertex="1">
          <mxGeometry x="160" y="20" width="20" height="20" as="geometry" />
        </mxCell>
        <mxCell id="mk1CYxiMvZQm68hf4U1i-7" value="STAGE 1" style="rounded=0;whiteSpace=wrap;html=1;fillColor=#99CCFF;strokeColor=none;" parent="1" vertex="1">
          <mxGeometry y="140" width="80" height="20" as="geometry" />
        </mxCell>
        <mxCell id="mk1CYxiMvZQm68hf4U1i-8" value="STAGE 2" style="rounded=0;whiteSpace=wrap;html=1;fillColor=#99CCFF;strokeColor=none;" parent="1" vertex="1">
          <mxGeometry x="80" y="140" width="80" height="20" as="geometry" />
        </mxCell>
        <mxCell id="mk1CYxiMvZQm68hf4U1i-9" value="STAGE 3" style="rounded=0;whiteSpace=wrap;html=1;fillColor=#99CCFF;strokeColor=none;" parent="1" vertex="1">
          <mxGeometry x="160" y="140" width="80" height="20" as="geometry" />
        </mxCell>
        <mxCell id="mk1CYxiMvZQm68hf4U1i-10" value="STAGE 1" style="rounded=0;whiteSpace=wrap;html=1;fillColor=#99CCFF;strokeColor=none;" parent="1" vertex="1">
          <mxGeometry x="760" width="80" height="20" as="geometry" />
        </mxCell>
        <mxCell id="mk1CYxiMvZQm68hf4U1i-11" value="" style="rounded=0;whiteSpace=wrap;html=1;fillColor=#E5CCFF;shadow=0;strokeColor=none;" parent="1" vertex="1">
          <mxGeometry x="700" y="30" width="5" height="90" as="geometry" />
        </mxCell>
        <mxCell id="mk1CYxiMvZQm68hf4U1i-12" value="" style="rounded=0;whiteSpace=wrap;html=1;fillColor=#E5CCFF;shadow=0;strokeColor=none;" parent="1" vertex="1">
          <mxGeometry x="700" y="140" width="5" height="90" as="geometry" />
        </mxCell>
        <mxCell id="mk1CYxiMvZQm68hf4U1i-15" value="" style="rounded=0;whiteSpace=wrap;html=1;fillColor=#E5CCFF;shadow=0;strokeColor=none;" parent="1" vertex="1">
          <mxGeometry x="700" y="30" width="200" height="5" as="geometry" />
        </mxCell>
        <mxCell id="mk1CYxiMvZQm68hf4U1i-16" value="" style="rounded=0;whiteSpace=wrap;html=1;fillColor=#E5CCFF;shadow=0;strokeColor=none;" parent="1" vertex="1">
          <mxGeometry x="895" y="30" width="5" height="90" as="geometry" />
        </mxCell>
        <mxCell id="mk1CYxiMvZQm68hf4U1i-17" value="" style="rounded=0;whiteSpace=wrap;html=1;fillColor=#E5CCFF;shadow=0;strokeColor=none;" parent="1" vertex="1">
          <mxGeometry x="895" y="140" width="5" height="90" as="geometry" />
        </mxCell>
        <mxCell id="mk1CYxiMvZQm68hf4U1i-18" value="" style="rounded=0;whiteSpace=wrap;html=1;" parent="1" vertex="1">
          <mxGeometry x="725" y="55" width="20" height="5" as="geometry" />
        </mxCell>
        <mxCell id="mk1CYxiMvZQm68hf4U1i-21" value="" style="rounded=0;whiteSpace=wrap;html=1;" parent="1" vertex="1">
          <mxGeometry x="700" y="110" width="45" height="15" as="geometry" />
        </mxCell>
        <mxCell id="mk1CYxiMvZQm68hf4U1i-23" value="" style="rounded=0;whiteSpace=wrap;html=1;" parent="1" vertex="1">
          <mxGeometry x="725" y="165" width="20" height="5" as="geometry" />
        </mxCell>
        <mxCell id="mk1CYxiMvZQm68hf4U1i-25" value="" style="rounded=0;whiteSpace=wrap;html=1;" parent="1" vertex="1">
          <mxGeometry x="725" y="80" width="20" height="5" as="geometry" />
        </mxCell>
        <mxCell id="mk1CYxiMvZQm68hf4U1i-27" value="" style="rounded=0;whiteSpace=wrap;html=1;fillColor=#E5CCFF;shadow=0;strokeColor=none;" parent="1" vertex="1">
          <mxGeometry x="700" y="225" width="200" height="5" as="geometry" />
        </mxCell>
        <mxCell id="mk1CYxiMvZQm68hf4U1i-30" value="" style="rounded=0;whiteSpace=wrap;html=1;" parent="1" vertex="1">
          <mxGeometry x="765" y="55" width="110" height="5" as="geometry" />
        </mxCell>
        <mxCell id="mk1CYxiMvZQm68hf4U1i-31" value="" style="rounded=0;whiteSpace=wrap;html=1;" parent="1" vertex="1">
          <mxGeometry x="765" y="85" width="5" height="85" as="geometry" />
        </mxCell>
        <mxCell id="mk1CYxiMvZQm68hf4U1i-32" value="" style="rounded=0;whiteSpace=wrap;html=1;" parent="1" vertex="1">
          <mxGeometry x="827" y="165" width="10" height="20" as="geometry" />
        </mxCell>
        <mxCell id="mk1CYxiMvZQm68hf4U1i-33" value="" style="rounded=0;whiteSpace=wrap;html=1;" parent="1" vertex="1">
          <mxGeometry x="760" y="180" width="20" height="10" as="geometry" />
        </mxCell>
        <mxCell id="mk1CYxiMvZQm68hf4U1i-36" value="" style="rounded=0;whiteSpace=wrap;html=1;" parent="1" vertex="1">
          <mxGeometry x="700" y="140" width="45" height="5" as="geometry" />
        </mxCell>
        <mxCell id="mk1CYxiMvZQm68hf4U1i-37" value="&lt;font style=&quot;font-size: 10px;&quot;&gt;FIND&lt;/font&gt;" style="rounded=0;whiteSpace=wrap;html=1;fillColor=#47FFBC;strokeColor=none;" parent="1" vertex="1">
          <mxGeometry x="20" y="120" width="40" height="20" as="geometry" />
        </mxCell>
        <mxCell id="mk1CYxiMvZQm68hf4U1i-39" value="key" style="rounded=0;whiteSpace=wrap;html=1;strokeColor=none;" parent="1" vertex="1">
          <mxGeometry x="680" y="30" width="20" height="20" as="geometry" />
        </mxCell>
        <mxCell id="mk1CYxiMvZQm68hf4U1i-45" value="" style="rounded=0;whiteSpace=wrap;html=1;" parent="1" vertex="1">
          <mxGeometry x="765" y="80" width="110" height="5" as="geometry" />
        </mxCell>
        <mxCell id="mk1CYxiMvZQm68hf4U1i-47" value="" style="rounded=0;whiteSpace=wrap;html=1;" parent="1" vertex="1">
          <mxGeometry x="765" y="105" width="35" height="5" as="geometry" />
        </mxCell>
        <mxCell id="mk1CYxiMvZQm68hf4U1i-48" value="" style="rounded=0;whiteSpace=wrap;html=1;" parent="1" vertex="1">
          <mxGeometry x="725" y="165" width="5" height="40" as="geometry" />
        </mxCell>
        <mxCell id="n1OKE0xGV-YdnzrgpFeP-1" value="" style="rounded=0;whiteSpace=wrap;html=1;fillColor=none;" parent="1" vertex="1">
          <mxGeometry width="240" height="60" as="geometry" />
        </mxCell>
        <mxCell id="n1OKE0xGV-YdnzrgpFeP-2" value="&lt;font style=&quot;font-size: 6px;&quot;&gt;關鎖&lt;/font&gt;" style="rounded=0;whiteSpace=wrap;html=1;strokeColor=none;" parent="1" vertex="1">
          <mxGeometry x="900" y="120" width="20" height="20" as="geometry" />
        </mxCell>
        <mxCell id="n1OKE0xGV-YdnzrgpFeP-3" value="key" style="rounded=0;whiteSpace=wrap;html=1;strokeColor=none;" parent="1" vertex="1">
          <mxGeometry x="705" y="35" width="20" height="20" as="geometry" />
        </mxCell>
        <mxCell id="n1OKE0xGV-YdnzrgpFeP-4" value="key" style="rounded=0;whiteSpace=wrap;html=1;strokeColor=none;" parent="1" vertex="1">
          <mxGeometry x="875" y="35" width="20" height="20" as="geometry" />
        </mxCell>
        <mxCell id="n1OKE0xGV-YdnzrgpFeP-5" value="key" style="rounded=0;whiteSpace=wrap;html=1;strokeColor=none;" parent="1" vertex="1">
          <mxGeometry x="875" y="205" width="20" height="20" as="geometry" />
        </mxCell>
        <mxCell id="n1OKE0xGV-YdnzrgpFeP-6" value="" style="rounded=0;whiteSpace=wrap;html=1;fillColor=none;" parent="1" vertex="1">
          <mxGeometry x="680" y="125" width="70" height="60" as="geometry" />
        </mxCell>
        <mxCell id="n1OKE0xGV-YdnzrgpFeP-7" value="STAGE 2 X" style="rounded=0;whiteSpace=wrap;html=1;fillColor=#947676;strokeColor=none;" parent="1" vertex="1">
          <mxGeometry x="160" y="60" width="80" height="20" as="geometry" />
        </mxCell>
        <mxCell id="n1OKE0xGV-YdnzrgpFeP-8" value="STAGE 3 X" style="rounded=0;whiteSpace=wrap;html=1;fillColor=#947676;strokeColor=none;" parent="1" vertex="1">
          <mxGeometry x="240" y="60" width="80" height="20" as="geometry" />
        </mxCell>
        <mxCell id="n1OKE0xGV-YdnzrgpFeP-9" value="" style="rounded=0;whiteSpace=wrap;html=1;fillColor=none;" parent="1" vertex="1">
          <mxGeometry width="240" height="60" as="geometry" />
        </mxCell>
        <mxCell id="n1OKE0xGV-YdnzrgpFeP-12" value="&lt;font style=&quot;font-size: 10px;&quot;&gt;FIND&lt;/font&gt;" style="rounded=0;whiteSpace=wrap;html=1;fillColor=#47FFBC;strokeColor=none;" parent="1" vertex="1">
          <mxGeometry x="640" y="30" width="40" height="20" as="geometry" />
        </mxCell>
      </root>
    </mxGraphModel>
  </diagram>
</mxfile>
